<svg width="30" height="29" viewBox="0 0 30 29" fill="none" xmlns="http://www.w3.org/2000/svg">
<path d="M15 21.8798C19.6745 21.8798 20.8431 17.2053 20.8431 17.2053H9.15686C9.15686 17.2053 10.3255 21.8798 15 21.8798Z" fill="#7519A0"/>
<path d="M15 3.18188C8.55619 3.18188 3.31373 8.42435 3.31373 14.8682C3.31373 21.312 8.55619 26.5544 15 26.5544C21.4438 26.5544 26.6863 21.312 26.6863 14.8682C26.6863 8.42435 21.4438 3.18188 15 3.18188ZM15 24.2172C9.84519 24.2172 5.65098 20.023 5.65098 14.8682C5.65098 9.71334 9.84519 5.51914 15 5.51914C20.1548 5.51914 24.349 9.71334 24.349 14.8682C24.349 20.023 20.1548 24.2172 15 24.2172Z" fill="#7519A0"/>
<path d="M16.1686 14.8679L18.5059 14.882C18.5199 14.3421 18.7326 13.6993 19.6745 13.6993C20.6164 13.6993 20.8291 14.3421 20.8431 14.8679H23.1804C23.1804 13.4586 22.2467 11.3621 19.6745 11.3621C17.1024 11.3621 16.1686 13.4586 16.1686 14.8679ZM10.3255 13.6993C11.2674 13.6993 11.4801 14.3421 11.4941 14.8679H13.8314C13.8314 13.4586 12.8976 11.3621 10.3255 11.3621C7.75334 11.3621 6.81961 13.4586 6.81961 14.8679L9.15686 14.882C9.17089 14.3421 9.38358 13.6993 10.3255 13.6993Z" fill="#7519A0"/>
</svg>
